<?xml version="1.0" encoding="utf-8"?>
<!-- Generated by IcoMoon.io -->
<!DOCTYPE svg PUBLIC "-//W3C//DTD SVG 1.1//EN" "http://www.w3.org/Graphics/SVG/1.1/DTD/svg11.dtd">
<svg version="1.1" xmlns="http://www.w3.org/2000/svg" xmlns:xlink="http://www.w3.org/1999/xlink" width="30" height="30" viewBox="0 0 30 30">
<path d="M15 0c8.272 0 15 6.728 15 15s-6.729 15-15 15c-8.271 0.001-15-6.727-15-14.999s6.729-15 15-15zM15 28.984c7.709 0 13.983-6.271 13.983-13.983 0-7.708-6.274-13.983-13.983-13.983s-13.982 6.275-13.982 13.983c0 7.711 6.274 13.983 13.982 13.983z" fill="#ffffff"></path>
<path d="M16.884 9.735c0.129 0 0.262 0.050 0.361 0.149 0.199 0.199 0.199 0.52 0 0.719l-4.609 4.612 4.609 4.616c0.196 0.198 0.196 0.52 0 0.719-0.198 0.198-0.523 0.198-0.721 0l-4.967-4.973c-0.198-0.198-0.198-0.52 0-0.719l4.967-4.973c0.098-0.099 0.231-0.149 0.36-0.149z" fill="#ffffff"></path>
</svg>
