<?xml version="1.0" encoding="utf-8"?>
<!-- Generator: Adobe Illustrator 19.2.1, SVG Export Plug-In . SVG Version: 6.00 Build 0)  -->
<svg version="1.1" id="Layer_1" xmlns="http://www.w3.org/2000/svg" xmlns:xlink="http://www.w3.org/1999/xlink" x="0px" y="0px"
	 viewBox="0 0 277.5 200.5" style="enable-background:new 0 0 277.5 200.5;" xml:space="preserve">
<style type="text/css">
	.st0{fill:none;stroke:#DDDDDD;stroke-width:0.75;stroke-miterlimit:10;}
	.st1{fill:#65BEE8;}
	.st2{fill:#E99897;}
</style>
<polyline class="st0" points="209.4,145.6 3.5,145.6 3.5,3.5 273.5,3.5 273.5,145.6 254,145.6 "/>
<g>
	<path class="st1" d="M39.3,33.5c-0.3,0.1-0.5,0.3-0.6,0.6c-0.1,0.3-0.2,0.8-0.2,1.4v12.9c0,0.7,0.1,1.1,0.2,1.4
		c0.1,0.3,0.3,0.5,0.6,0.6c0.3,0.1,0.7,0.2,1.4,0.2v0.5c-0.8-0.1-1.9-0.1-3.3-0.1c-1.5,0-2.6,0-3.3,0.1v-0.5c0.6,0,1.1-0.1,1.4-0.2
		c0.3-0.1,0.5-0.3,0.6-0.6c0.1-0.3,0.2-0.8,0.2-1.4V35.6c0-0.7-0.1-1.1-0.2-1.4c-0.1-0.3-0.3-0.5-0.6-0.6c-0.3-0.1-0.7-0.2-1.4-0.2
		v-0.5c0.7,0.1,1.8,0.1,3.3,0.1c1.4,0,2.5,0,3.3-0.1v0.5C40,33.3,39.5,33.4,39.3,33.5z"/>
	<path class="st1" d="M44.6,35.3c0.1-0.7,0.2-1.3,0.4-1.8c0.2-0.5,0.5-0.9,0.8-1.3c0.3-0.4,0.8-0.7,1.3-1c0.5-0.2,1.1-0.3,1.8-0.3
		c0.9,0,1.6,0.2,2.3,0.7c0.5,0.4,0.8,1,0.8,1.6c0,0.4-0.1,0.7-0.4,1c-0.3,0.3-0.6,0.4-1,0.4c-0.4,0-0.7-0.1-1-0.4
		c-0.3-0.3-0.4-0.6-0.4-1c0-0.4,0.1-0.6,0.3-0.9c0.2-0.2,0.5-0.4,0.8-0.5c-0.1-0.2-0.2-0.3-0.4-0.4s-0.5-0.2-0.9-0.2
		c-0.8,0-1.3,0.3-1.7,1c-0.2,0.3-0.3,0.9-0.4,1.6c-0.1,0.7-0.1,1.8-0.1,3.4v0.7h2.8v0.5h-2.8v10.2c0,0.8,0.2,1.4,0.7,1.7
		c0.5,0.3,1.1,0.5,2.1,0.5v0.5c-2.1-0.1-3.5-0.1-4-0.1c-0.4,0-1.4,0-3.1,0.1v-0.5c0.5,0,0.9-0.1,1.2-0.2c0.3-0.1,0.5-0.3,0.6-0.6
		c0.1-0.3,0.2-0.6,0.2-1.1V38.4h-2.1v-0.5h2.1C44.5,36.8,44.5,35.9,44.6,35.3z"/>
	<path class="st1" d="M67,37.9c0.8,0,1.4,0,2-0.1v0.5c-0.3,0-0.7,0.2-0.9,0.5s-0.5,0.7-0.8,1.4l-4.3,11.2l-0.9,2.3
		c-0.3,0.9-0.7,1.5-1.1,1.8c-0.5,0.4-1.2,0.7-2,0.7c-0.5,0-0.9-0.1-1.3-0.4c-0.3-0.3-0.5-0.7-0.5-1.1c0-0.4,0.1-0.7,0.4-1
		c0.2-0.2,0.6-0.4,1-0.4c0.4,0,0.7,0.1,0.9,0.3c0.2,0.2,0.4,0.5,0.4,0.9c0,0.5-0.2,0.9-0.7,1.2c0,0,0.1,0,0.2,0c1,0,1.7-0.7,2.2-2
		l0.9-2.4l-4.7-11.3c-0.3-0.6-0.6-1-0.9-1.2c-0.3-0.2-0.6-0.3-0.9-0.3v-0.5c0.8,0.1,1.7,0.2,2.6,0.2c0.7,0,1.9-0.1,3.4-0.2v0.5
		c-0.4,0-0.8,0-1,0c-0.2,0-0.4,0.1-0.6,0.2c-0.2,0.1-0.2,0.3-0.2,0.6c0,0.3,0.1,0.7,0.3,1.3l3.1,7.8l2.9-7.5
		c0.2-0.5,0.3-0.9,0.3-1.2c0-0.4-0.2-0.7-0.5-0.9c-0.3-0.2-0.8-0.3-1.5-0.4v-0.5C65.8,37.9,66.5,37.9,67,37.9z"/>
	<path class="st1" d="M79.2,38.2c0.9,0.5,1.6,1.3,2.1,2.3c0.5,1.1,0.8,2.4,0.8,4s-0.3,2.9-0.8,4c-0.5,1-1.2,1.8-2.1,2.3
		c-0.9,0.5-1.9,0.7-3,0.7s-2.2-0.2-3-0.7c-0.9-0.5-1.6-1.3-2.1-2.3c-0.5-1-0.8-2.4-0.8-4s0.3-2.9,0.8-4c0.5-1.1,1.2-1.8,2.1-2.3
		c0.9-0.5,1.9-0.7,3-0.7S78.3,37.7,79.2,38.2z M73.7,39.6c-0.6,1.1-0.9,2.7-0.9,5c0,2.2,0.3,3.9,0.9,4.9c0.6,1.1,1.4,1.6,2.5,1.6
		s1.9-0.5,2.5-1.6c0.6-1.1,0.9-2.7,0.9-4.9c0-2.2-0.3-3.9-0.9-5C78,38.5,77.2,38,76.1,38S74.3,38.5,73.7,39.6z"/>
	<path class="st1" d="M96.3,50.1c0.3,0.4,0.8,0.5,1.5,0.5v0.5c-0.5-0.1-1.1-0.1-1.6-0.1c-1.1,0-2,0.1-2.7,0.4v-3.1
		c-0.4,1.1-1,1.9-1.8,2.4c-0.8,0.5-1.6,0.8-2.5,0.8c-1.2,0-2.1-0.3-2.7-1c-0.3-0.3-0.5-0.8-0.7-1.3c-0.1-0.5-0.2-1.2-0.2-2.1v-6.5
		c0-0.8-0.1-1.4-0.4-1.8s-0.8-0.5-1.5-0.5v-0.5c0.5,0.1,1.1,0.1,1.6,0.1c1.1,0,2-0.1,2.7-0.4v10.2c0,0.7,0,1.2,0.1,1.6
		s0.3,0.7,0.5,1c0.3,0.3,0.7,0.4,1.3,0.4c0.7,0,1.3-0.2,1.8-0.6s1-1,1.3-1.7s0.5-1.5,0.5-2.4v-5.4c0-0.8-0.1-1.4-0.4-1.8
		c-0.3-0.4-0.8-0.5-1.5-0.5v-0.5c0.5,0.1,1.1,0.1,1.6,0.1c1.1,0,2-0.1,2.7-0.4v10.9C95.8,49.2,96,49.8,96.3,50.1z"/>
	<path class="st1" d="M110.7,38.2c0.8-0.5,1.6-0.7,2.6-0.7c1.2,0,2.1,0.3,2.8,1c0.3,0.4,0.6,0.8,0.7,1.3c0.1,0.5,0.2,1.2,0.2,2.1
		v6.9c0,0.5,0.1,0.9,0.2,1.1c0.1,0.3,0.3,0.5,0.6,0.6c0.3,0.1,0.7,0.2,1.2,0.2v0.5c-1.6-0.1-2.7-0.1-3.1-0.1c-0.5,0-1.5,0-2.9,0.1
		v-0.5c0.4,0,0.8-0.1,1-0.2s0.4-0.3,0.5-0.6c0.1-0.3,0.2-0.6,0.2-1.1v-7.5c0-0.6-0.1-1.2-0.2-1.6s-0.3-0.8-0.6-1
		c-0.3-0.3-0.8-0.4-1.3-0.4c-0.7,0-1.3,0.2-1.9,0.6c-0.6,0.4-1,1-1.3,1.7c-0.3,0.7-0.5,1.5-0.5,2.4v5.8c0,0.5,0.1,0.9,0.2,1.1
		c0.1,0.3,0.3,0.5,0.5,0.6c0.2,0.1,0.6,0.2,1,0.2v0.5c-1.5-0.1-2.4-0.1-2.9-0.1c-0.5,0-1.5,0-3.1,0.1v-0.5c0.5,0,0.9-0.1,1.2-0.2
		c0.3-0.1,0.5-0.3,0.6-0.6c0.1-0.3,0.2-0.6,0.2-1.1V34c0-0.8-0.1-1.4-0.4-1.7c-0.3-0.4-0.8-0.5-1.5-0.5v-0.5
		c0.5,0.1,1.1,0.1,1.6,0.1c1.1,0,2-0.1,2.7-0.4v9.7C109.3,39.5,109.9,38.7,110.7,38.2z"/>
	<path class="st1" d="M127,38.5c-0.4-0.4-1-0.6-1.8-0.6c-1.2,0-2.1,0.3-2.6,0.9c0.3,0.1,0.6,0.3,0.9,0.6c0.2,0.3,0.3,0.6,0.3,1
		c0,0.4-0.1,0.8-0.4,1c-0.3,0.2-0.6,0.4-1.1,0.4c-0.4,0-0.8-0.1-1-0.4c-0.2-0.3-0.4-0.7-0.4-1.2c0-0.7,0.4-1.3,1.2-1.9
		c0.4-0.3,0.9-0.5,1.6-0.7c0.6-0.2,1.3-0.3,2.1-0.3c0.7,0,1.3,0.1,1.9,0.3c0.5,0.2,1,0.4,1.3,0.7c0.4,0.4,0.7,0.9,0.8,1.4
		c0.1,0.5,0.2,1.3,0.2,2.2v7.2c0,0.4,0.1,0.7,0.2,0.9c0.1,0.2,0.3,0.3,0.6,0.3c0.2,0,0.4,0,0.6-0.1s0.4-0.2,0.6-0.4l0.3,0.4
		c-0.3,0.2-0.6,0.4-0.8,0.5s-0.4,0.2-0.7,0.3s-0.6,0.1-0.9,0.1c-0.8,0-1.4-0.2-1.7-0.6c-0.3-0.4-0.5-1-0.5-1.7
		c-0.5,0.8-1.1,1.4-1.8,1.8c-0.7,0.4-1.4,0.5-2.2,0.5c-0.6,0-1.2-0.1-1.7-0.3c-0.5-0.2-0.9-0.5-1.2-1c-0.3-0.4-0.5-1-0.5-1.6
		c0-0.7,0.2-1.2,0.5-1.7s0.8-0.9,1.4-1.2c0.6-0.4,1.4-0.7,2.3-1.1c0.2-0.1,0.6-0.2,1.2-0.5s1.1-0.5,1.4-0.8c0.3-0.3,0.4-0.6,0.4-0.9
		v-1.6C127.7,39.6,127.5,38.9,127,38.5z M127,43.8c-0.3,0.2-0.9,0.5-1.9,0.9c-0.5,0.2-0.9,0.5-1.3,0.7c-0.3,0.2-0.6,0.6-0.9,1
		s-0.4,0.9-0.4,1.6c0,0.8,0.2,1.3,0.6,1.7c0.4,0.4,0.9,0.6,1.5,0.6c1.2,0,2.1-0.7,2.9-2v-5.1C127.5,43.5,127.3,43.7,127,43.8z"/>
	<path class="st1" d="M142.9,37.9c0.8,0,1.4,0,2-0.1v0.5c-0.3,0-0.7,0.2-0.9,0.5s-0.5,0.7-0.8,1.4l-4.3,11.2h-0.4l-4.8-11.5
		c-0.3-0.6-0.5-1-0.8-1.2c-0.2-0.2-0.5-0.3-0.8-0.3v-0.5c0.9,0.1,1.7,0.1,2.3,0.1c1.3,0,2.5,0,3.4-0.1v0.5c-0.4,0-0.8,0-1,0
		c-0.2,0-0.4,0.1-0.6,0.2c-0.2,0.1-0.2,0.3-0.2,0.6c0,0.3,0.1,0.7,0.3,1.1l3.2,7.9l2.9-7.5c0.2-0.5,0.3-0.9,0.3-1.2
		c0-0.4-0.2-0.7-0.5-0.9s-0.8-0.3-1.5-0.4v-0.5C141.6,37.9,142.3,37.9,142.9,37.9z"/>
	<path class="st1" d="M155.7,49.8c-0.4,0.5-1,1-1.7,1.3c-0.7,0.3-1.4,0.5-2.2,0.5c-1.2,0-2.3-0.3-3.2-0.8c-0.9-0.6-1.6-1.4-2.1-2.4
		c-0.5-1-0.7-2.2-0.7-3.5c0-1.5,0.2-2.8,0.7-3.9s1.2-2,2.1-2.6c0.9-0.6,1.9-0.9,3.1-0.9c1.6,0,2.8,0.5,3.6,1.4
		c0.8,0.9,1.3,2.4,1.3,4.3h-8.1c-0.1,0.4-0.1,1-0.1,1.7c0,1.1,0.2,2.1,0.6,3c0.4,0.9,0.9,1.5,1.5,2s1.3,0.7,1.9,0.7
		c1.7,0,3-0.9,3.8-2.6l0.5,0.2C156.5,48.7,156.2,49.3,155.7,49.8z M153.9,40.3c-0.2-0.7-0.5-1.3-0.8-1.7s-0.9-0.6-1.4-0.6
		c-0.5,0-1,0.2-1.5,0.5c-0.4,0.3-0.8,0.9-1.1,1.6c-0.3,0.7-0.5,1.6-0.6,2.6h5.7C154.1,41.8,154.1,41,153.9,40.3z"/>
	<path class="st1" d="M172,38.5c-0.4-0.4-1-0.6-1.8-0.6c-1.2,0-2.1,0.3-2.6,0.9c0.3,0.1,0.6,0.3,0.9,0.6c0.2,0.3,0.3,0.6,0.3,1
		c0,0.4-0.1,0.8-0.4,1c-0.3,0.2-0.6,0.4-1.1,0.4c-0.4,0-0.8-0.1-1-0.4c-0.2-0.3-0.4-0.7-0.4-1.2c0-0.7,0.4-1.3,1.2-1.9
		c0.4-0.3,0.9-0.5,1.6-0.7c0.6-0.2,1.3-0.3,2.1-0.3c0.7,0,1.3,0.1,1.9,0.3c0.5,0.2,1,0.4,1.3,0.7c0.4,0.4,0.7,0.9,0.8,1.4
		c0.1,0.5,0.2,1.3,0.2,2.2v7.2c0,0.4,0.1,0.7,0.2,0.9c0.1,0.2,0.3,0.3,0.6,0.3c0.2,0,0.4,0,0.6-0.1s0.4-0.2,0.6-0.4l0.3,0.4
		c-0.3,0.2-0.6,0.4-0.8,0.5s-0.4,0.2-0.7,0.3s-0.6,0.1-0.9,0.1c-0.8,0-1.4-0.2-1.7-0.6c-0.3-0.4-0.5-1-0.5-1.7
		c-0.5,0.8-1.1,1.4-1.8,1.8c-0.7,0.4-1.4,0.5-2.2,0.5c-0.6,0-1.2-0.1-1.7-0.3c-0.5-0.2-0.9-0.5-1.2-1c-0.3-0.4-0.5-1-0.5-1.6
		c0-0.7,0.2-1.2,0.5-1.7s0.8-0.9,1.4-1.2c0.6-0.4,1.4-0.7,2.3-1.1c0.2-0.1,0.6-0.2,1.2-0.5s1.1-0.5,1.4-0.8c0.3-0.3,0.4-0.6,0.4-0.9
		v-1.6C172.6,39.6,172.4,38.9,172,38.5z M172,43.8c-0.3,0.2-0.9,0.5-1.9,0.9c-0.5,0.2-0.9,0.5-1.3,0.7c-0.3,0.2-0.6,0.6-0.9,1
		s-0.4,0.9-0.4,1.6c0,0.8,0.2,1.3,0.6,1.7c0.4,0.4,0.9,0.6,1.5,0.6c1.2,0,2.1-0.7,2.9-2v-5.1C172.5,43.5,172.3,43.7,172,43.8z"/>
	<path class="st1" d="M184.1,38.2c0.8-0.5,1.6-0.7,2.6-0.7c1.2,0,2.1,0.3,2.8,1c0.3,0.4,0.6,0.8,0.7,1.3c0.1,0.5,0.2,1.2,0.2,2.1
		v6.9c0,0.5,0.1,0.9,0.2,1.1c0.1,0.3,0.3,0.5,0.6,0.6c0.3,0.1,0.7,0.2,1.2,0.2v0.5c-1.6-0.1-2.6-0.1-3.1-0.1c-0.5,0-1.5,0-2.9,0.1
		v-0.5c0.4,0,0.8-0.1,1-0.2c0.2-0.1,0.4-0.3,0.5-0.6c0.1-0.3,0.2-0.6,0.2-1.1v-7.5c0-0.6,0-1.2-0.1-1.6c-0.1-0.4-0.3-0.8-0.6-1
		c-0.3-0.3-0.8-0.4-1.4-0.4c-0.7,0-1.3,0.2-1.9,0.6c-0.6,0.4-1,1-1.3,1.7c-0.3,0.7-0.5,1.5-0.5,2.4v5.8c0,0.5,0.1,0.9,0.2,1.1
		c0.1,0.3,0.3,0.5,0.5,0.6s0.6,0.2,1,0.2v0.5c-1.5-0.1-2.4-0.1-2.9-0.1s-1.5,0-3.1,0.1v-0.5c0.5,0,0.9-0.1,1.2-0.2
		c0.3-0.1,0.5-0.3,0.6-0.6c0.1-0.3,0.2-0.6,0.2-1.1v-8.1c0-0.8-0.1-1.4-0.4-1.8c-0.3-0.4-0.8-0.5-1.5-0.5v-0.5
		c0.5,0.1,1.1,0.1,1.6,0.1c1.1,0,2-0.1,2.7-0.4v3.1C182.7,39.5,183.3,38.7,184.1,38.2z"/>
	<path class="st1" d="M203.4,37.9c0.8,0,1.4,0,2-0.1v0.5c-0.3,0-0.7,0.2-0.9,0.5s-0.5,0.7-0.8,1.4l-4.3,11.2l-0.9,2.3
		c-0.3,0.9-0.7,1.5-1.1,1.8c-0.5,0.4-1.2,0.7-2,0.7c-0.5,0-0.9-0.1-1.3-0.4c-0.3-0.3-0.5-0.7-0.5-1.1c0-0.4,0.1-0.7,0.4-1
		c0.2-0.2,0.6-0.4,1-0.4c0.4,0,0.7,0.1,0.9,0.3c0.2,0.2,0.4,0.5,0.4,0.9c0,0.5-0.2,0.9-0.7,1.2c0,0,0.1,0,0.2,0c1,0,1.7-0.7,2.2-2
		l0.9-2.4l-4.7-11.3c-0.3-0.6-0.6-1-0.9-1.2c-0.3-0.2-0.6-0.3-0.9-0.3v-0.5c0.8,0.1,1.7,0.2,2.6,0.2c0.7,0,1.9-0.1,3.4-0.2v0.5
		c-0.4,0-0.8,0-1,0c-0.2,0-0.4,0.1-0.6,0.2c-0.2,0.1-0.2,0.3-0.2,0.6c0,0.3,0.1,0.7,0.3,1.3l3.1,7.8l2.9-7.5
		c0.2-0.5,0.3-0.9,0.3-1.2c0-0.4-0.2-0.7-0.5-0.9c-0.3-0.2-0.8-0.3-1.5-0.4v-0.5C202.1,37.9,202.9,37.9,203.4,37.9z"/>
	<path class="st1" d="M45.8,86.2c0.3,0.2,0.7,0.3,1.3,0.3v0.5c-0.2,0-0.5,0-1.1-0.1S44.9,87,44.4,87c-0.7,0-1.5,0-2.3,0.1
		c-0.8,0-1.3,0.1-1.5,0.1v-0.5c0.8,0,1.5-0.1,1.9-0.4c0.4-0.3,0.6-0.8,0.6-1.5v-4.5c-0.3,0.8-0.8,1.5-1.5,1.9
		c-0.6,0.4-1.4,0.7-2.2,0.7c-1,0-1.9-0.3-2.7-0.8c-0.8-0.5-1.4-1.3-1.9-2.4c-0.5-1.1-0.7-2.4-0.7-3.9s0.2-2.8,0.7-3.9
		c0.5-1.1,1.1-1.9,2-2.4c0.8-0.5,1.8-0.8,2.9-0.8c0.9,0,1.6,0.2,2.2,0.5c0.6,0.3,1.1,0.8,1.4,1.4c0.9-1,1.5-1.6,1.9-1.9l0.4,0.2
		c-0.1,0.4-0.2,0.9-0.2,1.5V85C45.5,85.6,45.6,86,45.8,86.2z M39.9,69.3c-1,0-1.9,0.5-2.4,1.6c-0.6,1.1-0.8,2.7-0.8,4.9
		c0,2.1,0.3,3.6,0.9,4.7c0.6,1,1.5,1.6,2.7,1.6c0.6,0,1.2-0.3,1.8-0.8c0.5-0.5,0.9-1.3,1.1-2.2v-8C42.5,69.8,41.4,69.3,39.9,69.3z"
		/>
	<path class="st1" d="M60.5,81.3c0.3,0.4,0.8,0.5,1.5,0.5v0.5c-0.5-0.1-1.1-0.1-1.6-0.1c-1.1,0-2,0.1-2.7,0.4v-3.1
		c-0.4,1.1-1,1.9-1.8,2.4c-0.8,0.5-1.6,0.8-2.5,0.8c-1.2,0-2.1-0.3-2.7-1c-0.3-0.3-0.5-0.8-0.7-1.3c-0.1-0.5-0.2-1.2-0.2-2.1v-6.5
		c0-0.8-0.1-1.4-0.4-1.8s-0.8-0.5-1.5-0.5V69c0.5,0.1,1.1,0.1,1.6,0.1c1.1,0,2-0.1,2.7-0.4V79c0,0.7,0,1.2,0.1,1.6s0.3,0.7,0.5,1
		c0.3,0.3,0.7,0.4,1.3,0.4c0.7,0,1.3-0.2,1.8-0.6s1-1,1.3-1.7s0.5-1.5,0.5-2.4v-5.4c0-0.8-0.1-1.4-0.4-1.8c-0.3-0.4-0.8-0.5-1.5-0.5
		V69c0.5,0.1,1.1,0.1,1.6,0.1c1.1,0,2-0.1,2.7-0.4v10.9C60.1,80.4,60.2,81,60.5,81.3z"/>
	<path class="st1" d="M73.7,81c-0.4,0.5-1,1-1.7,1.3c-0.7,0.3-1.4,0.5-2.2,0.5c-1.2,0-2.3-0.3-3.2-0.8c-0.9-0.6-1.6-1.4-2.1-2.4
		c-0.5-1-0.7-2.2-0.7-3.5c0-1.5,0.2-2.8,0.7-3.9s1.2-2,2.1-2.6c0.9-0.6,1.9-0.9,3.1-0.9c1.6,0,2.8,0.5,3.6,1.4
		c0.8,0.9,1.3,2.4,1.3,4.3h-8.1c-0.1,0.4-0.1,1-0.1,1.7c0,1.1,0.2,2.1,0.6,3c0.4,0.9,0.9,1.5,1.5,2s1.3,0.7,1.9,0.7
		c1.7,0,3-0.9,3.8-2.6l0.5,0.2C74.5,79.9,74.2,80.5,73.7,81z M71.9,71.5c-0.2-0.7-0.5-1.3-0.8-1.7s-0.9-0.6-1.4-0.6
		c-0.5,0-1,0.2-1.5,0.5c-0.4,0.3-0.8,0.9-1.1,1.6c-0.3,0.7-0.5,1.6-0.6,2.6h5.7C72.1,73,72,72.2,71.9,71.5z"/>
	<path class="st1" d="M78.5,80c0.2,0.7,0.6,1.2,1.1,1.6s1.2,0.6,2,0.6c0.4,0,0.7-0.1,1.1-0.2c0.4-0.2,0.6-0.4,0.9-0.8
		c0.2-0.4,0.3-0.8,0.3-1.4c0-0.5-0.1-0.9-0.4-1.3c-0.2-0.4-0.6-0.7-0.9-1c-0.4-0.3-0.9-0.7-1.6-1.1c-0.9-0.5-1.5-1-2-1.3
		c-0.5-0.3-0.8-0.8-1.1-1.3s-0.5-1.1-0.5-1.8c0-0.7,0.2-1.4,0.5-1.9c0.3-0.5,0.8-0.9,1.4-1.1c0.6-0.2,1.2-0.4,1.9-0.4
		c0.6,0,1.2,0.1,1.6,0.3c0.5,0.2,0.9,0.4,1.2,0.7c0.2,0.1,0.3,0.2,0.5,0.2c0.3,0,0.5-0.4,0.6-1.1h0.6c-0.1,0.8-0.1,2.3-0.1,4.4H85
		c-0.2-1.1-0.6-2.1-1.1-2.8s-1.4-1.1-2.4-1.1c-0.6,0-1.1,0.2-1.5,0.5c-0.4,0.4-0.6,0.8-0.6,1.5c0,0.6,0.2,1.1,0.6,1.5
		c0.4,0.4,0.9,0.8,1.5,1.1c0.6,0.4,1,0.6,1.2,0.8c0.8,0.5,1.4,1,1.9,1.4c0.5,0.4,0.9,0.9,1.2,1.4c0.3,0.5,0.5,1.1,0.5,1.8
		c0,0.8-0.2,1.4-0.6,2c-0.4,0.5-0.9,1-1.6,1.2c-0.7,0.3-1.4,0.4-2.2,0.4c-0.8,0-1.5-0.1-2.1-0.4c-0.3-0.2-0.7-0.4-1.1-0.7
		c-0.1-0.1-0.1-0.1-0.2-0.1c-0.3,0-0.4,0.3-0.5,1h-0.6c0.1-1,0.1-2.7,0.1-5.2h0.6C78.1,78.5,78.2,79.4,78.5,80z"/>
	<path class="st1" d="M96.2,69v0.5h-3.8v10.1c0,0.8,0.1,1.4,0.4,1.7c0.3,0.3,0.7,0.5,1.2,0.5c0.5,0,1-0.2,1.4-0.6s0.7-1.1,1-2.1
		l0.5,0.1c-0.4,2.4-1.5,3.6-3.4,3.6c-0.6,0-1.1-0.1-1.4-0.2c-0.4-0.1-0.7-0.4-1-0.7c-0.4-0.4-0.6-0.8-0.8-1.4
		C90.1,80,90,79.2,90,78.3v-8.7h-2.5V69H90v-4c1,0,1.8-0.1,2.3-0.4V69H96.2z"/>
	<path class="st1" d="M101.9,81.1c0.1,0.3,0.3,0.5,0.6,0.6c0.3,0.1,0.7,0.2,1.2,0.2v0.5c-1.6-0.1-2.6-0.1-3.1-0.1s-1.6,0-3.1,0.1
		v-0.5c0.5,0,0.9-0.1,1.2-0.2c0.3-0.1,0.5-0.3,0.6-0.6c0.1-0.3,0.2-0.6,0.2-1.1v-8.1c0-0.8-0.1-1.4-0.4-1.8
		c-0.3-0.4-0.8-0.5-1.5-0.5V69c0.5,0.1,1.1,0.1,1.6,0.1c1.1,0,2-0.1,2.7-0.4V80C101.7,80.5,101.7,80.9,101.9,81.1z M101.1,62.7
		c0.3,0.2,0.5,0.4,0.6,0.6s0.2,0.5,0.2,0.8s-0.1,0.6-0.2,0.8c-0.2,0.3-0.4,0.5-0.6,0.6c-0.3,0.1-0.5,0.2-0.8,0.2s-0.6-0.1-0.8-0.2
		c-0.3-0.1-0.5-0.4-0.6-0.6c-0.1-0.3-0.2-0.5-0.2-0.8s0.1-0.6,0.2-0.8c0.1-0.3,0.4-0.5,0.6-0.6c0.3-0.2,0.5-0.2,0.8-0.2
		S100.9,62.6,101.1,62.7z"/>
	<path class="st1" d="M114.4,69.4c0.9,0.5,1.6,1.3,2.1,2.3c0.5,1.1,0.8,2.4,0.8,4s-0.3,2.9-0.8,4c-0.5,1-1.2,1.8-2.1,2.3
		c-0.9,0.5-1.9,0.7-3,0.7s-2.2-0.2-3-0.7c-0.9-0.5-1.6-1.3-2.1-2.3c-0.5-1-0.8-2.4-0.8-4s0.3-2.9,0.8-4c0.5-1.1,1.2-1.8,2.1-2.3
		c0.9-0.5,1.9-0.7,3-0.7S113.5,68.9,114.4,69.4z M108.9,70.8c-0.6,1.1-0.9,2.7-0.9,5c0,2.2,0.3,3.9,0.9,4.9c0.6,1.1,1.4,1.6,2.5,1.6
		s1.9-0.5,2.5-1.6c0.6-1.1,0.9-2.7,0.9-4.9c0-2.2-0.3-3.9-0.9-5c-0.6-1.1-1.4-1.6-2.5-1.6S109.5,69.7,108.9,70.8z"/>
	<path class="st1" d="M125.3,69.4c0.8-0.5,1.6-0.7,2.6-0.7c1.2,0,2.1,0.3,2.8,1c0.3,0.4,0.6,0.8,0.7,1.3c0.1,0.5,0.2,1.2,0.2,2.1V80
		c0,0.5,0.1,0.9,0.2,1.1c0.1,0.3,0.3,0.5,0.6,0.6c0.3,0.1,0.7,0.2,1.2,0.2v0.5c-1.6-0.1-2.6-0.1-3.1-0.1c-0.5,0-1.5,0-2.9,0.1v-0.5
		c0.4,0,0.8-0.1,1-0.2c0.2-0.1,0.4-0.3,0.5-0.6c0.1-0.3,0.2-0.6,0.2-1.1v-7.5c0-0.6,0-1.2-0.1-1.6c-0.1-0.4-0.3-0.8-0.6-1
		c-0.3-0.3-0.8-0.4-1.4-0.4c-0.7,0-1.3,0.2-1.9,0.6c-0.6,0.4-1,1-1.3,1.7c-0.3,0.7-0.5,1.5-0.5,2.4V80c0,0.5,0.1,0.9,0.2,1.1
		c0.1,0.3,0.3,0.5,0.5,0.6s0.6,0.2,1,0.2v0.5c-1.5-0.1-2.4-0.1-2.9-0.1s-1.5,0-3.1,0.1v-0.5c0.5,0,0.9-0.1,1.2-0.2
		c0.3-0.1,0.5-0.3,0.6-0.6c0.1-0.3,0.2-0.6,0.2-1.1v-8.1c0-0.8-0.1-1.4-0.4-1.8c-0.3-0.4-0.8-0.5-1.5-0.5V69
		c0.5,0.1,1.1,0.1,1.6,0.1c1.1,0,2-0.1,2.7-0.4v3.1C124,70.7,124.6,69.9,125.3,69.4z"/>
	<path class="st1" d="M136.7,80c0.2,0.7,0.6,1.2,1.1,1.6s1.2,0.6,2,0.6c0.4,0,0.7-0.1,1.1-0.2c0.4-0.2,0.6-0.4,0.9-0.8
		c0.2-0.4,0.3-0.8,0.3-1.4c0-0.5-0.1-0.9-0.4-1.3c-0.2-0.4-0.6-0.7-0.9-1c-0.4-0.3-0.9-0.7-1.6-1.1c-0.9-0.5-1.5-1-2-1.3
		c-0.5-0.3-0.8-0.8-1.1-1.3s-0.5-1.1-0.5-1.8c0-0.7,0.2-1.4,0.5-1.9c0.3-0.5,0.8-0.9,1.4-1.1c0.6-0.2,1.2-0.4,1.9-0.4
		c0.6,0,1.2,0.1,1.6,0.3c0.5,0.2,0.9,0.4,1.2,0.7c0.2,0.1,0.3,0.2,0.5,0.2c0.3,0,0.5-0.4,0.6-1.1h0.6c-0.1,0.8-0.1,2.3-0.1,4.4h-0.6
		c-0.2-1.1-0.6-2.1-1.1-2.8s-1.4-1.1-2.4-1.1c-0.6,0-1.1,0.2-1.5,0.5c-0.4,0.4-0.6,0.8-0.6,1.5c0,0.6,0.2,1.1,0.6,1.5
		c0.4,0.4,0.9,0.8,1.5,1.1c0.6,0.4,1,0.6,1.2,0.8c0.8,0.5,1.4,1,1.9,1.4c0.5,0.4,0.9,0.9,1.2,1.4c0.3,0.5,0.5,1.1,0.5,1.8
		c0,0.8-0.2,1.4-0.6,2c-0.4,0.5-0.9,1-1.6,1.2c-0.7,0.3-1.4,0.4-2.2,0.4c-0.8,0-1.5-0.1-2.1-0.4c-0.3-0.2-0.7-0.4-1.1-0.7
		c-0.1-0.1-0.1-0.1-0.2-0.1c-0.3,0-0.4,0.3-0.5,1h-0.6c0.1-1,0.1-2.7,0.1-5.2h0.6C136.2,78.5,136.4,79.4,136.7,80z"/>
	<path class="st1" d="M154.9,66.5c0.1-0.7,0.2-1.3,0.4-1.8c0.2-0.5,0.5-0.9,0.8-1.3c0.3-0.4,0.8-0.7,1.3-1c0.5-0.2,1.1-0.3,1.8-0.3
		c0.9,0,1.6,0.2,2.3,0.7c0.5,0.4,0.8,1,0.8,1.6c0,0.4-0.1,0.7-0.4,1c-0.3,0.3-0.6,0.4-1,0.4c-0.4,0-0.7-0.1-1-0.4
		c-0.3-0.3-0.4-0.6-0.4-1c0-0.4,0.1-0.6,0.3-0.9c0.2-0.2,0.5-0.4,0.8-0.5c-0.1-0.2-0.2-0.3-0.4-0.4s-0.5-0.2-0.9-0.2
		c-0.8,0-1.3,0.3-1.7,1c-0.2,0.3-0.3,0.9-0.4,1.6c-0.1,0.7-0.1,1.8-0.1,3.4V69h2.8v0.5h-2.8v10.2c0,0.8,0.2,1.4,0.7,1.7
		c0.5,0.3,1.1,0.5,2.1,0.5v0.5c-2.1-0.1-3.5-0.1-4-0.1c-0.4,0-1.4,0-3.1,0.1v-0.5c0.5,0,0.9-0.1,1.2-0.2c0.3-0.1,0.5-0.3,0.6-0.6
		c0.1-0.3,0.2-0.6,0.2-1.1V69.6h-2.1V69h2.1C154.8,68,154.8,67.1,154.9,66.5z"/>
	<path class="st1" d="M171.3,81c-0.4,0.5-1,1-1.7,1.3c-0.7,0.3-1.4,0.5-2.2,0.5c-1.2,0-2.3-0.3-3.2-0.8c-0.9-0.6-1.6-1.4-2.1-2.4
		c-0.5-1-0.7-2.2-0.7-3.5c0-1.5,0.2-2.8,0.7-3.9s1.2-2,2.1-2.6c0.9-0.6,1.9-0.9,3.1-0.9c1.6,0,2.8,0.5,3.6,1.4
		c0.8,0.9,1.3,2.4,1.3,4.3H164c-0.1,0.4-0.1,1-0.1,1.7c0,1.1,0.2,2.1,0.6,3c0.4,0.9,0.9,1.5,1.5,2s1.3,0.7,1.9,0.7
		c1.7,0,3-0.9,3.8-2.6l0.5,0.2C172.1,79.9,171.7,80.5,171.3,81z M169.5,71.5c-0.2-0.7-0.5-1.3-0.8-1.7s-0.9-0.6-1.4-0.6
		c-0.5,0-1,0.2-1.5,0.5c-0.4,0.3-0.8,0.9-1.1,1.6c-0.3,0.7-0.5,1.6-0.6,2.6h5.7C169.7,73,169.6,72.2,169.5,71.5z"/>
	<path class="st1" d="M184.4,81c-0.4,0.5-1,1-1.7,1.3c-0.7,0.3-1.4,0.5-2.2,0.5c-1.2,0-2.3-0.3-3.2-0.8c-0.9-0.6-1.6-1.4-2.1-2.4
		c-0.5-1-0.7-2.2-0.7-3.5c0-1.5,0.2-2.8,0.7-3.9s1.2-2,2.1-2.6c0.9-0.6,1.9-0.9,3.1-0.9c1.6,0,2.8,0.5,3.6,1.4
		c0.8,0.9,1.3,2.4,1.3,4.3h-8.1c-0.1,0.4-0.1,1-0.1,1.7c0,1.1,0.2,2.1,0.6,3c0.4,0.9,0.9,1.5,1.5,2s1.3,0.7,1.9,0.7
		c1.7,0,3-0.9,3.8-2.6l0.5,0.2C185.2,79.9,184.9,80.5,184.4,81z M182.6,71.5c-0.2-0.7-0.5-1.3-0.8-1.7s-0.9-0.6-1.4-0.6
		c-0.5,0-1,0.2-1.5,0.5c-0.4,0.3-0.8,0.9-1.1,1.6c-0.3,0.7-0.5,1.6-0.6,2.6h5.7C182.9,73,182.8,72.2,182.6,71.5z"/>
	<path class="st1" d="M191.6,81.1c0.1,0.3,0.3,0.5,0.6,0.6c0.3,0.1,0.7,0.2,1.2,0.2v0.5c-1.6-0.1-2.6-0.1-3.1-0.1s-1.6,0-3.1,0.1
		v-0.5c0.5,0,0.9-0.1,1.2-0.2c0.3-0.1,0.5-0.3,0.6-0.6c0.1-0.3,0.2-0.6,0.2-1.1V65.1c0-0.8-0.1-1.4-0.4-1.7
		c-0.3-0.4-0.8-0.5-1.5-0.5v-0.5c0.5,0.1,1.1,0.1,1.6,0.1c1.1,0,2-0.1,2.7-0.4v18C191.4,80.5,191.5,80.9,191.6,81.1z"/>
	<path class="st1" d="M203.3,66.5c0.1-0.7,0.2-1.3,0.4-1.8c0.2-0.5,0.5-0.9,0.8-1.3c0.3-0.4,0.8-0.7,1.3-1c0.5-0.2,1.1-0.3,1.8-0.3
		c0.9,0,1.6,0.2,2.3,0.7c0.5,0.4,0.8,1,0.8,1.6c0,0.4-0.1,0.7-0.4,1c-0.3,0.3-0.6,0.4-1,0.4c-0.4,0-0.7-0.1-1-0.4
		c-0.3-0.3-0.4-0.6-0.4-1c0-0.4,0.1-0.6,0.3-0.9c0.2-0.2,0.5-0.4,0.8-0.5c-0.1-0.2-0.2-0.3-0.4-0.4s-0.5-0.2-0.9-0.2
		c-0.8,0-1.3,0.3-1.7,1c-0.2,0.3-0.3,0.9-0.4,1.6c-0.1,0.7-0.1,1.8-0.1,3.4V69h2.8v0.5h-2.8v10.2c0,0.8,0.2,1.4,0.7,1.7
		c0.5,0.3,1.1,0.5,2.1,0.5v0.5c-2.1-0.1-3.5-0.1-4-0.1c-0.4,0-1.4,0-3.1,0.1v-0.5c0.5,0,0.9-0.1,1.2-0.2c0.3-0.1,0.5-0.3,0.6-0.6
		c0.1-0.3,0.2-0.6,0.2-1.1V69.6h-2.1V69h2.1C203.2,68,203.2,67.1,203.3,66.5z"/>
	<path class="st1" d="M215,70.4c0.4-0.5,0.8-0.9,1.3-1.3s1-0.5,1.6-0.5c0.5,0,0.9,0.1,1.2,0.3c0.4,0.2,0.6,0.4,0.8,0.7
		s0.3,0.7,0.3,1c0,0.5-0.1,0.8-0.4,1.2c-0.3,0.3-0.6,0.5-1.1,0.5c-0.4,0-0.7-0.1-1-0.4c-0.3-0.2-0.4-0.6-0.4-1c0-0.6,0.3-1,0.9-1.4
		c-0.1-0.2-0.3-0.3-0.5-0.3c-0.7,0-1.3,0.3-1.9,0.8s-1,1.2-1.3,1.9s-0.5,1.5-0.5,2.2v5.5c0,0.8,0.2,1.4,0.7,1.7
		c0.5,0.3,1.1,0.5,2.1,0.5v0.5c-2.1-0.1-3.5-0.1-4-0.1c-0.5,0-1.5,0-3.1,0.1v-0.5c0.5,0,0.9-0.1,1.2-0.2c0.3-0.1,0.5-0.3,0.6-0.6
		c0.1-0.3,0.2-0.6,0.2-1.1v-8.1c0-0.8-0.1-1.4-0.4-1.8c-0.3-0.4-0.8-0.5-1.5-0.5V69c0.5,0.1,1.1,0.1,1.6,0.1c1.1,0,2-0.1,2.7-0.4V72
		C214.3,71.4,214.6,70.9,215,70.4z"/>
	<path class="st1" d="M231.2,81c-0.4,0.5-1,1-1.7,1.3c-0.7,0.3-1.4,0.5-2.2,0.5c-1.2,0-2.3-0.3-3.2-0.8c-0.9-0.6-1.6-1.4-2.1-2.4
		c-0.5-1-0.7-2.2-0.7-3.5c0-1.5,0.2-2.8,0.7-3.9s1.2-2,2.1-2.6c0.9-0.6,1.9-0.9,3.1-0.9c1.6,0,2.8,0.5,3.6,1.4
		c0.8,0.9,1.3,2.4,1.3,4.3h-8.1c-0.1,0.4-0.1,1-0.1,1.7c0,1.1,0.2,2.1,0.6,3c0.4,0.9,0.9,1.5,1.5,2s1.3,0.7,1.9,0.7
		c1.7,0,3-0.9,3.8-2.6l0.5,0.2C232,79.9,231.6,80.5,231.2,81z M229.3,71.5c-0.2-0.7-0.5-1.3-0.8-1.7s-0.9-0.6-1.4-0.6
		c-0.5,0-1,0.2-1.5,0.5c-0.4,0.3-0.8,0.9-1.1,1.6c-0.3,0.7-0.5,1.6-0.6,2.6h5.7C229.6,73,229.5,72.2,229.3,71.5z"/>
	<path class="st1" d="M244.3,81c-0.4,0.5-1,1-1.7,1.3c-0.7,0.3-1.4,0.5-2.2,0.5c-1.2,0-2.3-0.3-3.2-0.8c-0.9-0.6-1.6-1.4-2.1-2.4
		c-0.5-1-0.7-2.2-0.7-3.5c0-1.5,0.2-2.8,0.7-3.9s1.2-2,2.1-2.6c0.9-0.6,1.9-0.9,3.1-0.9c1.6,0,2.8,0.5,3.6,1.4
		c0.8,0.9,1.3,2.4,1.3,4.3h-8.1c-0.1,0.4-0.1,1-0.1,1.7c0,1.1,0.2,2.1,0.6,3c0.4,0.9,0.9,1.5,1.5,2s1.3,0.7,1.9,0.7
		c1.7,0,3-0.9,3.8-2.6l0.5,0.2C245.1,79.9,244.8,80.5,244.3,81z M242.5,71.5c-0.2-0.7-0.5-1.3-0.8-1.7s-0.9-0.6-1.4-0.6
		c-0.5,0-1,0.2-1.5,0.5c-0.4,0.3-0.8,0.9-1.1,1.6c-0.3,0.7-0.5,1.6-0.6,2.6h5.7C242.7,73,242.7,72.2,242.5,71.5z"/>
	<path class="st1" d="M41.7,100.2v0.5h-3.8v10.1c0,0.8,0.1,1.4,0.4,1.7c0.3,0.3,0.7,0.5,1.2,0.5c0.5,0,1-0.2,1.4-0.6s0.7-1.1,1-2.1
		l0.5,0.1c-0.4,2.4-1.5,3.6-3.4,3.6c-0.6,0-1.1-0.1-1.4-0.2c-0.4-0.1-0.7-0.4-1-0.7c-0.4-0.4-0.6-0.8-0.8-1.4
		c-0.2-0.6-0.2-1.3-0.2-2.2v-8.7H33v-0.5h2.5v-4c1,0,1.8-0.1,2.3-0.4v4.3H41.7z"/>
	<path class="st1" d="M52.3,100.6c0.9,0.5,1.6,1.3,2.1,2.3c0.5,1.1,0.8,2.4,0.8,4s-0.3,2.9-0.8,4c-0.5,1-1.2,1.8-2.1,2.3
		c-0.9,0.5-1.9,0.7-3,0.7s-2.2-0.2-3-0.7c-0.9-0.5-1.6-1.3-2.1-2.3c-0.5-1-0.8-2.4-0.8-4s0.3-2.9,0.8-4c0.5-1.1,1.2-1.8,2.1-2.3
		c0.9-0.5,1.9-0.7,3-0.7S51.4,100.1,52.3,100.6z M46.8,102c-0.6,1.1-0.9,2.7-0.9,5c0,2.2,0.3,3.9,0.9,4.9c0.6,1.1,1.4,1.6,2.5,1.6
		s1.9-0.5,2.5-1.6c0.6-1.1,0.9-2.7,0.9-4.9c0-2.2-0.3-3.9-0.9-5c-0.6-1.1-1.4-1.6-2.5-1.6S47.4,100.9,46.8,102z"/>
	<path class="st1" d="M73.7,112.1c-0.4,0.5-0.9,1-1.6,1.3c-0.7,0.4-1.4,0.5-2.3,0.5c-1.1,0-2.1-0.3-2.9-0.8s-1.6-1.4-2.1-2.4
		c-0.5-1-0.8-2.3-0.8-3.7c0-1.4,0.3-2.7,0.8-3.8c0.5-1.1,1.2-1.9,2.2-2.6s2-0.9,3.1-0.9s2.2,0.3,3,0.8c0.8,0.5,1.2,1.2,1.2,2
		c0,0.5-0.1,0.8-0.4,1.1c-0.3,0.3-0.6,0.4-1,0.4c-0.4,0-0.7-0.1-1-0.3c-0.3-0.2-0.4-0.6-0.4-1c0-0.4,0.1-0.7,0.3-0.9
		c0.2-0.2,0.5-0.4,0.8-0.5c-0.2-0.3-0.5-0.6-0.9-0.8c-0.4-0.2-0.9-0.3-1.4-0.3c-0.6,0-1.2,0.2-1.8,0.6s-1,1.1-1.4,2
		s-0.5,2.2-0.5,3.7c0,2.2,0.3,3.7,1,4.7c0.7,1,1.6,1.5,2.7,1.5c0.7,0,1.4-0.2,2.1-0.6c0.7-0.4,1.2-1.1,1.7-2l0.5,0.2
		C74.4,111,74.1,111.6,73.7,112.1z"/>
	<path class="st1" d="M85.6,100.6c0.9,0.5,1.6,1.3,2.1,2.3c0.5,1.1,0.8,2.4,0.8,4s-0.3,2.9-0.8,4c-0.5,1-1.2,1.8-2.1,2.3
		c-0.9,0.5-1.9,0.7-3,0.7s-2.2-0.2-3-0.7c-0.9-0.5-1.6-1.3-2.1-2.3c-0.5-1-0.8-2.4-0.8-4s0.3-2.9,0.8-4c0.5-1.1,1.2-1.8,2.1-2.3
		c0.9-0.5,1.9-0.7,3-0.7S84.7,100.1,85.6,100.6z M80.1,102c-0.6,1.1-0.9,2.7-0.9,5c0,2.2,0.3,3.9,0.9,4.9c0.6,1.1,1.4,1.6,2.5,1.6
		s1.9-0.5,2.5-1.6c0.6-1.1,0.9-2.7,0.9-4.9c0-2.2-0.3-3.9-0.9-5c-0.6-1.1-1.4-1.6-2.5-1.6S80.7,100.9,80.1,102z"/>
	<path class="st1" d="M96.6,100.6c0.8-0.5,1.6-0.7,2.6-0.7c1.2,0,2.1,0.3,2.8,1c0.3,0.4,0.6,0.8,0.7,1.3c0.1,0.5,0.2,1.2,0.2,2.1
		v6.9c0,0.5,0.1,0.9,0.2,1.1c0.1,0.3,0.3,0.5,0.6,0.6c0.3,0.1,0.7,0.2,1.2,0.2v0.5c-1.6-0.1-2.6-0.1-3.1-0.1c-0.5,0-1.5,0-2.9,0.1
		v-0.5c0.4,0,0.8-0.1,1-0.2c0.2-0.1,0.4-0.3,0.5-0.6c0.1-0.3,0.2-0.6,0.2-1.1v-7.5c0-0.6,0-1.2-0.1-1.6c-0.1-0.4-0.3-0.8-0.6-1
		c-0.3-0.3-0.8-0.4-1.4-0.4c-0.7,0-1.3,0.2-1.9,0.6c-0.6,0.4-1,1-1.3,1.7c-0.3,0.7-0.5,1.5-0.5,2.4v5.8c0,0.5,0.1,0.9,0.2,1.1
		c0.1,0.3,0.3,0.5,0.5,0.6s0.6,0.2,1,0.2v0.5c-1.5-0.1-2.4-0.1-2.9-0.1s-1.5,0-3.1,0.1v-0.5c0.5,0,0.9-0.1,1.2-0.2
		c0.3-0.1,0.5-0.3,0.6-0.6c0.1-0.3,0.2-0.6,0.2-1.1v-8.1c0-0.8-0.1-1.4-0.4-1.8c-0.3-0.4-0.8-0.5-1.5-0.5v-0.5
		c0.5,0.1,1.1,0.1,1.6,0.1c1.1,0,2-0.1,2.7-0.4v3.1C95.2,101.9,95.8,101.1,96.6,100.6z"/>
	<path class="st1" d="M114,100.2v0.5h-3.8v10.1c0,0.8,0.1,1.4,0.4,1.7c0.3,0.3,0.7,0.5,1.2,0.5c0.5,0,1-0.2,1.4-0.6s0.7-1.1,1-2.1
		l0.5,0.1c-0.4,2.4-1.5,3.6-3.4,3.6c-0.6,0-1.1-0.1-1.4-0.2c-0.4-0.1-0.7-0.4-1-0.7c-0.4-0.4-0.6-0.8-0.8-1.4
		c-0.2-0.6-0.2-1.3-0.2-2.2v-8.7h-2.5v-0.5h2.5v-4c1,0,1.8-0.1,2.3-0.4v4.3H114z"/>
	<path class="st1" d="M122.1,100.9c-0.4-0.4-1-0.6-1.8-0.6c-1.2,0-2.1,0.3-2.6,0.9c0.3,0.1,0.6,0.3,0.9,0.6c0.2,0.3,0.3,0.6,0.3,1
		c0,0.4-0.1,0.8-0.4,1c-0.3,0.2-0.6,0.4-1.1,0.4c-0.4,0-0.8-0.1-1-0.4c-0.2-0.3-0.4-0.7-0.4-1.2c0-0.7,0.4-1.3,1.2-1.9
		c0.4-0.3,0.9-0.5,1.6-0.7c0.6-0.2,1.3-0.3,2.1-0.3c0.7,0,1.3,0.1,1.9,0.3c0.5,0.2,1,0.4,1.3,0.7c0.4,0.4,0.7,0.9,0.8,1.4
		c0.1,0.5,0.2,1.3,0.2,2.2v7.2c0,0.4,0.1,0.7,0.2,0.9c0.1,0.2,0.3,0.3,0.6,0.3c0.2,0,0.4,0,0.6-0.1s0.4-0.2,0.6-0.4l0.3,0.4
		c-0.3,0.2-0.6,0.4-0.8,0.5s-0.4,0.2-0.7,0.3s-0.6,0.1-0.9,0.1c-0.8,0-1.4-0.2-1.7-0.6c-0.3-0.4-0.5-1-0.5-1.7
		c-0.5,0.8-1.1,1.4-1.8,1.8c-0.7,0.4-1.4,0.5-2.2,0.5c-0.6,0-1.2-0.1-1.7-0.3c-0.5-0.2-0.9-0.5-1.2-1c-0.3-0.4-0.5-1-0.5-1.6
		c0-0.7,0.2-1.2,0.5-1.7s0.8-0.9,1.4-1.2c0.6-0.4,1.4-0.7,2.3-1.1c0.2-0.1,0.6-0.2,1.2-0.5s1.1-0.5,1.4-0.8c0.3-0.3,0.4-0.6,0.4-0.9
		V103C122.7,102,122.5,101.3,122.1,100.9z M122.1,106.2c-0.3,0.2-0.9,0.5-1.9,0.9c-0.5,0.2-0.9,0.5-1.3,0.7c-0.3,0.2-0.6,0.6-0.9,1
		s-0.4,0.9-0.4,1.6c0,0.8,0.2,1.3,0.6,1.7c0.4,0.4,0.9,0.6,1.5,0.6c1.2,0,2.1-0.7,2.9-2v-5.1C122.6,105.9,122.4,106.1,122.1,106.2z"
		/>
	<path class="st1" d="M138.2,112.1c-0.4,0.5-0.9,1-1.6,1.3c-0.7,0.4-1.4,0.5-2.3,0.5c-1.1,0-2.1-0.3-2.9-0.8s-1.6-1.4-2.1-2.4
		c-0.5-1-0.8-2.3-0.8-3.7c0-1.4,0.3-2.7,0.8-3.8c0.5-1.1,1.2-1.9,2.2-2.6s2-0.9,3.1-0.9s2.2,0.3,3,0.8c0.8,0.5,1.2,1.2,1.2,2
		c0,0.5-0.1,0.8-0.4,1.1c-0.3,0.3-0.6,0.4-1,0.4c-0.4,0-0.7-0.1-1-0.3c-0.3-0.2-0.4-0.6-0.4-1c0-0.4,0.1-0.7,0.3-0.9
		c0.2-0.2,0.5-0.4,0.8-0.5c-0.2-0.3-0.5-0.6-0.9-0.8c-0.4-0.2-0.9-0.3-1.4-0.3c-0.6,0-1.2,0.2-1.8,0.6s-1,1.1-1.4,2
		s-0.5,2.2-0.5,3.7c0,2.2,0.3,3.7,1,4.7c0.7,1,1.6,1.5,2.7,1.5c0.7,0,1.4-0.2,2.1-0.6c0.7-0.4,1.2-1.1,1.7-2l0.5,0.2
		C138.9,111,138.6,111.6,138.2,112.1z"/>
	<path class="st1" d="M148.8,100.2v0.5H145v10.1c0,0.8,0.1,1.4,0.4,1.7c0.3,0.3,0.7,0.5,1.2,0.5c0.5,0,1-0.2,1.4-0.6s0.7-1.1,1-2.1
		l0.5,0.1c-0.4,2.4-1.5,3.6-3.4,3.6c-0.6,0-1.1-0.1-1.4-0.2c-0.4-0.1-0.7-0.4-1-0.7c-0.4-0.4-0.6-0.8-0.8-1.4
		c-0.2-0.6-0.2-1.3-0.2-2.2v-8.7h-2.5v-0.5h2.5v-4c1,0,1.8-0.1,2.3-0.4v4.3H148.8z"/>
	<path class="st1" d="M176.2,112.3c0.1,0.3,0.3,0.5,0.6,0.6c0.3,0.1,0.7,0.2,1.2,0.2v0.5c-1.6-0.1-2.6-0.1-3.1-0.1
		c-0.5,0-1.5,0-2.9,0.1v-0.5c0.4,0,0.8-0.1,1-0.2c0.2-0.1,0.4-0.3,0.5-0.6c0.1-0.3,0.2-0.6,0.2-1.1v-7.5c0-0.7,0-1.2-0.1-1.6
		c-0.1-0.4-0.3-0.7-0.5-1c-0.3-0.3-0.7-0.4-1.3-0.4c-0.7,0-1.3,0.2-1.8,0.6s-1,1-1.3,1.7s-0.5,1.5-0.5,2.4v5.8
		c0,0.5,0.1,0.9,0.2,1.1c0.1,0.3,0.3,0.5,0.6,0.6s0.7,0.2,1.2,0.2v0.5c-1.6-0.1-2.6-0.1-3.1-0.1c-0.5,0-1.5,0-2.9,0.1v-0.5
		c0.4,0,0.8-0.1,1-0.2s0.4-0.3,0.5-0.6s0.2-0.6,0.2-1.1v-7.5c0-0.7,0-1.2-0.1-1.6c-0.1-0.4-0.3-0.7-0.5-1c-0.3-0.3-0.7-0.4-1.3-0.4
		c-0.7,0-1.3,0.2-1.8,0.6c-0.5,0.4-1,1-1.3,1.7c-0.3,0.7-0.5,1.5-0.5,2.4v5.8c0,0.5,0.1,0.9,0.2,1.1c0.1,0.3,0.3,0.5,0.5,0.6
		s0.6,0.2,1,0.2v0.5c-1.5-0.1-2.4-0.1-2.9-0.1s-1.5,0-3.1,0.1v-0.5c0.5,0,0.9-0.1,1.2-0.2c0.3-0.1,0.5-0.3,0.6-0.6
		c0.1-0.3,0.2-0.6,0.2-1.1v-8.1c0-0.8-0.1-1.4-0.4-1.8c-0.3-0.4-0.8-0.5-1.5-0.5v-0.5c0.5,0.1,1.1,0.1,1.6,0.1c1.1,0,2-0.1,2.7-0.4
		v3.1c0.4-1.1,1-1.9,1.8-2.4c0.8-0.5,1.6-0.8,2.5-0.8c1.2,0,2.1,0.3,2.7,1c0.4,0.5,0.7,1.2,0.8,2.1c0.4-1.1,1-1.9,1.8-2.4
		c0.8-0.5,1.6-0.7,2.5-0.7c1.2,0,2.1,0.3,2.7,1c0.3,0.3,0.5,0.8,0.7,1.3c0.1,0.5,0.2,1.2,0.2,2.1v6.9
		C176,111.7,176,112.1,176.2,112.3z"/>
	<path class="st1" d="M189.4,112.2c-0.4,0.5-1,1-1.7,1.3c-0.7,0.3-1.4,0.5-2.2,0.5c-1.2,0-2.3-0.3-3.2-0.8c-0.9-0.6-1.6-1.4-2.1-2.4
		c-0.5-1-0.7-2.2-0.7-3.5c0-1.5,0.2-2.8,0.7-3.9s1.2-2,2.1-2.6c0.9-0.6,1.9-0.9,3.1-0.9c1.6,0,2.8,0.5,3.6,1.4
		c0.8,0.9,1.3,2.4,1.3,4.3h-8.1c-0.1,0.4-0.1,1-0.1,1.7c0,1.1,0.2,2.1,0.6,3c0.4,0.9,0.9,1.5,1.5,2s1.3,0.7,1.9,0.7
		c1.7,0,3-0.9,3.8-2.6l0.5,0.2C190.2,111.1,189.8,111.7,189.4,112.2z M187.6,102.7c-0.2-0.7-0.5-1.3-0.8-1.7s-0.9-0.6-1.4-0.6
		c-0.5,0-1,0.2-1.5,0.5c-0.4,0.3-0.8,0.9-1.1,1.6c-0.3,0.7-0.5,1.6-0.6,2.6h5.7C187.8,104.2,187.7,103.4,187.6,102.7z"/>
	<path class="st1" d="M195.7,110.9c0.3,0.1,0.5,0.4,0.6,0.6c0.1,0.3,0.2,0.5,0.2,0.8s-0.1,0.6-0.2,0.8c-0.1,0.3-0.4,0.5-0.6,0.6
		c-0.3,0.2-0.5,0.2-0.8,0.2s-0.6-0.1-0.8-0.2c-0.3-0.2-0.5-0.4-0.6-0.6c-0.1-0.3-0.2-0.5-0.2-0.8s0.1-0.6,0.2-0.8
		c0.1-0.3,0.4-0.5,0.6-0.6c0.3-0.1,0.5-0.2,0.8-0.2S195.5,110.7,195.7,110.9z M194.5,104.3c-0.1-1.4-0.3-3.2-0.5-5.3
		c-0.2-2.1-0.3-3.5-0.3-4.3c0-0.5,0.1-0.9,0.3-1.1s0.5-0.4,0.9-0.4c0.3,0,0.6,0.1,0.9,0.4c0.2,0.2,0.3,0.6,0.3,1.1
		c0,0.8-0.1,2.1-0.3,4.1c-0.2,2-0.4,3.7-0.5,5.1s-0.2,3-0.2,4.5h-0.5C194.7,107.1,194.6,105.7,194.5,104.3z"/>
</g>
<path class="st2" d="M181.4,160.3c-1,0.6-1.5,1.6-1.4,2.7c0.1,1.1,0.8,2.1,1.9,2.4l20.6,7.3l6.5,22.5c0.2,0.7,0.8,1.3,1.6,1.5
	c0.1,0,0.3,0,0.4,0c0.6,0,1.2-0.3,1.6-0.8l12.7-15.3l17.3,7.7c0.5,0.2,1,0.3,1.6,0.3c0.7,0,1.3-0.2,1.9-0.5c1.1-0.6,1.8-1.6,2-2.8
	l11.9-70.9L181.4,160.3z M181.7,162.8c0-0.5,0.2-0.9,0.6-1.1l71.3-41.6L202.9,171l-20.5-7.2C182,163.7,181.7,163.3,181.7,162.8z
	 M210.4,193.9l-6.3-21.7l48.1-48.3l-35.5,50.2c-0.4,0.4-0.7,0.9-0.9,1.4c-0.1,0.1-0.1,0.2-0.2,0.3l-0.2,0.5c0,0.1,0,0.1,0,0.1
	L210.4,193.9z M212.3,193.5l4.8-16.5l6.3,3L212.3,193.5z M246.3,185.1c-0.1,0.7-0.5,1.3-1.1,1.6c-0.6,0.3-1.3,0.4-2,0.1l-25.3-11.4
	l39.4-55.7L246.3,185.1z"/>
</svg>
