<?xml version="1.0" encoding="utf-8"?>
<!-- Generated by IcoMoon.io -->
<!DOCTYPE svg PUBLIC "-//W3C//DTD SVG 1.1//EN" "http://www.w3.org/Graphics/SVG/1.1/DTD/svg11.dtd">
<svg version="1.1" xmlns="http://www.w3.org/2000/svg" xmlns:xlink="http://www.w3.org/1999/xlink" width="30" height="30" viewBox="0 0 30 30">
<path d="M15 30c-8.271 0-15-6.728-15-15s6.729-15 15-15c8.271 0 15 6.729 15 15s-6.729 15-15 15zM15 1.017c-7.708 0-13.983 6.271-13.983 13.983 0 7.709 6.275 13.983 13.984 13.983s13.982-6.274 13.982-13.983c0-7.712-6.274-13.983-13.982-13.983z" fill="#ffffff"></path>
<path d="M13.116 20.265c-0.13 0-0.262-0.050-0.361-0.149-0.199-0.198-0.199-0.52 0-0.719l4.609-4.612-4.609-4.616c-0.196-0.198-0.196-0.52 0-0.719 0.198-0.198 0.523-0.198 0.721 0l4.967 4.973c0.198 0.198 0.198 0.52 0 0.719l-4.967 4.973c-0.099 0.099-0.231 0.149-0.36 0.149z" fill="#ffffff"></path>
</svg>
